<?xml version="1.0" encoding="utf-8"?>
<!-- Generator: Adobe Illustrator 16.0.0, SVG Export Plug-In . SVG Version: 6.00 Build 0)  -->
<!DOCTYPE svg PUBLIC "-//W3C//DTD SVG 1.1//EN" "http://www.w3.org/Graphics/SVG/1.1/DTD/svg11.dtd">
<svg version="1.1" id="Calque_1" xmlns="http://www.w3.org/2000/svg" xmlns:xlink="http://www.w3.org/1999/xlink" x="0px" y="0px"
	 width="216px" height="111.6px" viewBox="0 0 216 111.6" enable-background="new 0 0 216 111.6" xml:space="preserve">
<image overflow="visible" width="1788" height="354" xlink:href="36F1907FF4693039.png"  transform="matrix(7.696700e-02 0 0 7.696700e-02 38.8232 55.4766)">
</image>
<g>
	<defs>
		<path id="SVGID_1_" d="M151.3,5.5L151.3,5.5L129.8,14c-5.9,2.3-8.8,9-6.5,15L130,46c5.9,4,12.8,7,20.4,7.8c4.8,0.5,9.5,0,14-1
			l7.2-2.8c5.9-2.3,8.8-9,6.5-15l-9.4-24c-0.1-0.2-4.2-10.6-4.2-10.6L151.3,5.5z"/>
	</defs>
	<use xlink:href="#SVGID_1_"  overflow="visible" fill="#605380"/>
	<clipPath id="SVGID_2_">
		<use xlink:href="#SVGID_1_"  overflow="visible"/>
	</clipPath>
	
		<rect x="119.8" y="-0.8" transform="matrix(-0.9991 4.205122e-02 -4.205122e-02 -0.9991 302.4024 48.4715)" clip-path="url(#SVGID_2_)" fill="#605380" width="61.7" height="56.4"/>
</g>
<g>
	<defs>
		<path id="SVGID_3_" d="M132.7,52.9c2.3,5.9,9,8.8,15,6.5l8.2-3.2c-1.1,0.1-2.2,0.2-3.3,0.3c-7.2,0.3-14-1.5-20.1-4.3L132.7,52.9z"
			/>
	</defs>
	<use xlink:href="#SVGID_3_"  overflow="visible" fill="#605380"/>
	<clipPath id="SVGID_4_">
		<use xlink:href="#SVGID_3_"  overflow="visible"/>
	</clipPath>
	<rect x="132.4" y="52.2" clip-path="url(#SVGID_4_)" fill="#605380" width="23.4" height="9.6"/>
</g>
<path fill="#FFFFFF" d="M150.4,53.9c-7.6-0.8-14.4-3.9-20.4-7.8l2.4,6.2c6.1,2.8,13,4.6,20.1,4.3c1.1,0,2.2-0.1,3.3-0.3l8.6-3.4
	C159.9,53.9,155.2,54.4,150.4,53.9"/>
<path fill="#FFFFFF" d="M123.7,43.8c0,0,7.3-14.4,24.6-17.5c21.2-3.9,6.6,23.4,6.6,23.4l-0.2,0c0,0,8.9-16.9-4.9-16.4
	C135.8,33.8,123.7,43.8,123.7,43.8"/>
<path fill="#FFFFFF" d="M158,14.3c0,2-1.6,3.6-3.6,3.6c-2,0-3.6-1.6-3.6-3.6c0-2,1.6-3.6,3.6-3.6C156.3,10.7,158,12.3,158,14.3"/>
<path fill="#FFFFFF" d="M171.3,13c0,0-5.3,10.5-18,12.9c-15.5,2.9-4.8-17.1-4.8-17.1l0.1,0c0,0-4.6,12.4,3.7,12
	C162.4,20.2,171.3,13,171.3,13"/>
<g>
	<defs>
		<path id="SVGID_5_" d="M8.3,101.7v-7.2h2c2.8,0,5,1,5,3.6c0,2.7-2.3,3.7-4.9,3.7C9.5,101.8,8.8,101.8,8.3,101.7 M8.3,85.5
			c0.4-0.1,1.1-0.2,2.3-0.2c2.6,0,4.1,1,4.1,3c0,1.9-1.6,3.2-4.4,3.2H8.3V85.5z M4.3,82.8v21.8c1,0.1,2.7,0.3,5,0.3
			c4,0,6.6-0.7,8.2-2.1c1.3-1.1,2.1-2.6,2.1-4.6c0-3.1-2.1-4.9-4.5-5.5v-0.1c2.4-0.9,3.7-2.8,3.7-4.8c0-1.9-0.9-3.3-2.3-4.1
			c-1.5-1-3.3-1.4-6.3-1.4C7.9,82.4,5.5,82.6,4.3,82.8"/>
	</defs>
	<use xlink:href="#SVGID_5_"  overflow="visible" fill="#605380"/>
	<clipPath id="SVGID_6_">
		<use xlink:href="#SVGID_5_"  overflow="visible"/>
	</clipPath>
	<rect x="4.3" y="82.4" clip-path="url(#SVGID_6_)" fill="#605380" width="15.3" height="22.5"/>
</g>
<g>
	<defs>
		<path id="SVGID_7_" d="M26.3,96.7c0-2.7,1.2-5.4,4-5.4c2.8,0,3.9,2.9,3.9,5.3c0,3.2-1.6,5.5-3.9,5.5
			C27.8,102.1,26.3,99.8,26.3,96.7 M22.1,96.8c0,5.1,3.5,8.2,8,8.2c4.1,0,8.2-2.6,8.2-8.5c0-4.9-3.2-8.2-7.9-8.2
			C25.6,88.3,22.1,91.5,22.1,96.8"/>
	</defs>
	<use xlink:href="#SVGID_7_"  overflow="visible" fill="#605380"/>
	<clipPath id="SVGID_8_">
		<use xlink:href="#SVGID_7_"  overflow="visible"/>
	</clipPath>
	<rect x="22.1" y="88.3" clip-path="url(#SVGID_8_)" fill="#605380" width="16.2" height="16.7"/>
</g>
<g>
	<defs>
		<path id="SVGID_9_" d="M45.4,91.1L45.4,91.1l-0.3-2.4h-3.5c0.1,1.4,0.1,2.9,0.1,4.8v11.2h4.1v-9.4c0-0.5,0-1,0.2-1.3
			c0.4-1.2,1.5-2.4,3.1-2.4c2.2,0,3.1,1.7,3.1,4v9h4v-9.5c0-5.1-2.9-6.9-5.7-6.9C47.8,88.3,46.1,89.8,45.4,91.1"/>
	</defs>
	<use xlink:href="#SVGID_9_"  overflow="visible" fill="#605380"/>
	<clipPath id="SVGID_10_">
		<use xlink:href="#SVGID_9_"  overflow="visible"/>
	</clipPath>
	<rect x="41.5" y="88.3" clip-path="url(#SVGID_10_)" fill="#605380" width="14.6" height="16.3"/>
</g>
<g>
	<defs>
		<path id="SVGID_11_" d="M61,88.7v13.1c0,3.5-0.3,4.8-1.1,5.5c-0.7,0.7-1.7,1.1-3,1.1l0.4,3.2c2,0,4.2-0.6,5.6-1.9
			c1.4-1.4,2.1-3.5,2.1-6.8V88.7H61z M60.7,84.2c0,1.2,0.9,2.2,2.2,2.2c1.4,0,2.3-1,2.3-2.2c0-1.2-0.9-2.2-2.2-2.2
			C61.6,82,60.7,83,60.7,84.2"/>
	</defs>
	<use xlink:href="#SVGID_11_"  overflow="visible" fill="#605380"/>
	<clipPath id="SVGID_12_">
		<use xlink:href="#SVGID_11_"  overflow="visible"/>
	</clipPath>
	<rect x="56.9" y="82" clip-path="url(#SVGID_12_)" fill="#605380" width="8.3" height="29.6"/>
</g>
<g>
	<defs>
		<path id="SVGID_13_" d="M72.4,96.7c0-2.7,1.1-5.4,4-5.4c2.8,0,3.9,2.9,3.9,5.3c0,3.2-1.6,5.5-3.9,5.5
			C73.9,102.1,72.4,99.8,72.4,96.7 M68.3,96.8c0,5.1,3.5,8.2,8,8.2c4.1,0,8.2-2.6,8.2-8.5c0-4.9-3.2-8.2-7.9-8.2
			C71.7,88.3,68.3,91.5,68.3,96.8"/>
	</defs>
	<use xlink:href="#SVGID_13_"  overflow="visible" fill="#605380"/>
	<clipPath id="SVGID_14_">
		<use xlink:href="#SVGID_13_"  overflow="visible"/>
	</clipPath>
	<rect x="68.3" y="88.3" clip-path="url(#SVGID_14_)" fill="#605380" width="16.2" height="16.7"/>
</g>
<g>
	<defs>
		<path id="SVGID_15_" d="M98.1,88.7v9.6c0,0.5-0.1,0.9-0.2,1.2c-0.4,1-1.5,2.2-3.1,2.2c-2.1,0-3-1.7-3-4.4v-8.7h-4v9.4
			c0,5.2,2.7,7,5.6,7c2.9,0,4.4-1.6,5.1-2.8h0.1l0.2,2.4h3.5c-0.1-1.3-0.1-2.9-0.1-4.8V88.7H98.1z"/>
	</defs>
	<use xlink:href="#SVGID_15_"  overflow="visible" fill="#605380"/>
	<clipPath id="SVGID_16_">
		<use xlink:href="#SVGID_15_"  overflow="visible"/>
	</clipPath>
	<rect x="87.7" y="88.7" clip-path="url(#SVGID_16_)" fill="#605380" width="14.5" height="16.3"/>
</g>
<g>
	<defs>
		<path id="SVGID_17_" d="M110.1,91.7H110l-0.1-3.1h-3.5c0.1,1.4,0.1,3,0.1,5.2v10.8h4v-8.3c0-0.5,0.1-0.9,0.1-1.2
			c0.4-1.8,1.7-3.1,3.6-3.1c0.5,0,0.9,0.1,1.2,0.1v-3.8c-0.3-0.1-0.6-0.1-1-0.1C112.8,88.3,110.9,89.5,110.1,91.7"/>
	</defs>
	<use xlink:href="#SVGID_17_"  overflow="visible" fill="#605380"/>
	<clipPath id="SVGID_18_">
		<use xlink:href="#SVGID_17_"  overflow="visible"/>
	</clipPath>
	<rect x="106.3" y="88.3" clip-path="url(#SVGID_18_)" fill="#605380" width="9.1" height="16.3"/>
</g>
<g>
	<defs>
		<rect id="SVGID_19_" x="116.9" y="94.5" width="8.4" height="2.8"/>
	</defs>
	<use xlink:href="#SVGID_19_"  overflow="visible" fill="#605380"/>
	<clipPath id="SVGID_20_">
		<use xlink:href="#SVGID_19_"  overflow="visible"/>
	</clipPath>
	<rect x="116.9" y="94.5" clip-path="url(#SVGID_20_)" fill="#605380" width="8.4" height="2.8"/>
</g>
<g>
	<defs>
		<path id="SVGID_21_" d="M127.8,93.3c0,1.9,1.3,3.6,4.4,4.7c2,0.7,2.6,1.2,2.6,2.3c0,1-0.8,1.8-2.6,1.8c-1.4,0-3.2-0.6-4.1-1.1
			l-0.8,2.9c1.2,0.7,2.9,1.1,4.9,1.1c4.2,0,6.5-2.1,6.5-5c0-2.4-1.4-3.8-4.3-4.9c-2-0.7-2.8-1.2-2.8-2.2c0-1,0.8-1.7,2.2-1.7
			c1.4,0,2.7,0.5,3.4,0.9l0.8-2.9c-0.9-0.5-2.5-1-4.2-1C130.1,88.3,127.8,90.5,127.8,93.3"/>
	</defs>
	<use xlink:href="#SVGID_21_"  overflow="visible" fill="#605380"/>
	<clipPath id="SVGID_22_">
		<use xlink:href="#SVGID_21_"  overflow="visible"/>
	</clipPath>
	<rect x="127.4" y="88.3" clip-path="url(#SVGID_22_)" fill="#605380" width="11.3" height="16.7"/>
</g>
<g>
	<defs>
		<path id="SVGID_23_" d="M144.9,99.8c0-2.4,2.7-3,5.6-3V99c0,0.3,0,0.6-0.1,0.9c-0.4,1.2-1.5,2.2-3.1,2.2
			C146,102.1,144.9,101.4,144.9,99.8 M142.1,89.7l0.8,2.6c1.1-0.7,2.7-1.2,4.3-1.2c2.8,0,3.2,1.7,3.2,2.8v0.3c-5.9,0-9.5,2-9.5,6
			c0,2.4,1.8,4.8,5,4.8c2.1,0,3.7-0.9,4.7-2.1h0.1l0.3,1.8h3.6c-0.2-1-0.2-2.4-0.2-3.8V95c0-3.5-1.5-6.7-6.6-6.7
			C145.3,88.3,143.3,89,142.1,89.7"/>
	</defs>
	<use xlink:href="#SVGID_23_"  overflow="visible" fill="#605380"/>
	<clipPath id="SVGID_24_">
		<use xlink:href="#SVGID_23_"  overflow="visible"/>
	</clipPath>
	<rect x="140.9" y="88.3" clip-path="url(#SVGID_24_)" fill="#605380" width="13.7" height="16.7"/>
</g>
<g>
	<defs>
		<path id="SVGID_25_" d="M162.4,91.1L162.4,91.1l-0.3-2.4h-3.5c0.1,1.4,0.1,2.9,0.1,4.8v11.2h4.1v-9.4c0-0.5,0-1,0.2-1.3
			c0.4-1.2,1.5-2.4,3.1-2.4c2.2,0,3,1.7,3,4v9h4v-9.5c0-5.1-2.9-6.9-5.7-6.9C164.8,88.3,163.1,89.8,162.4,91.1"/>
	</defs>
	<use xlink:href="#SVGID_25_"  overflow="visible" fill="#605380"/>
	<clipPath id="SVGID_26_">
		<use xlink:href="#SVGID_25_"  overflow="visible"/>
	</clipPath>
	<rect x="158.6" y="88.3" clip-path="url(#SVGID_26_)" fill="#605380" width="14.6" height="16.3"/>
</g>
<g>
	<defs>
		<path id="SVGID_27_" d="M178,85.7v3h-2.3v3h2.3v7.5c0,2.1,0.4,3.5,1.2,4.5c0.8,0.8,2,1.3,3.5,1.3c1.3,0,2.3-0.2,2.9-0.4l-0.1-3.1
			c-0.5,0.1-0.8,0.2-1.6,0.2c-1.5,0-2.1-1-2.1-3v-7.1h3.8v-3h-3.8v-4.1L178,85.7z"/>
	</defs>
	<use xlink:href="#SVGID_27_"  overflow="visible" fill="#605380"/>
	<clipPath id="SVGID_28_">
		<use xlink:href="#SVGID_27_"  overflow="visible"/>
	</clipPath>
	<rect x="175.7" y="84.6" clip-path="url(#SVGID_28_)" fill="#605380" width="10.1" height="20.4"/>
</g>
<g>
	<defs>
		<path id="SVGID_29_" d="M195.2,91.1c2.7,0,3.3,2.4,3.3,3.9h-7C191.6,93.3,192.7,91.1,195.2,91.1 M187.6,96.9
			c0,4.9,3.1,8.1,8.2,8.1c2.3,0,4.2-0.5,5.6-1l-0.6-2.8c-1.2,0.5-2.6,0.7-4.4,0.7c-2.6,0-4.8-1.2-4.9-4.1h10.7
			c0.1-0.4,0.1-1,0.1-1.7c0-3.5-1.7-7.8-6.9-7.8C190.3,88.3,187.6,92.5,187.6,96.9 M196.4,81.7l-2.9,4.9h2.8l4-4.9H196.4z"/>
	</defs>
	<use xlink:href="#SVGID_29_"  overflow="visible" fill="#605380"/>
	<clipPath id="SVGID_30_">
		<use xlink:href="#SVGID_29_"  overflow="visible"/>
	</clipPath>
	<rect x="187.6" y="81.7" clip-path="url(#SVGID_30_)" fill="#605380" width="14.7" height="23.3"/>
</g>
<g>
	<defs>
		<path id="SVGID_31_" d="M105.4,5.5L105.4,5.5L83.8,14c-5.9,2.3-8.8,9-6.5,15L84,46c5.9,4,12.8,7,20.4,7.8c4.8,0.5,9.5,0,14-1
			l7.2-2.8c5.9-2.3,8.8-9,6.5-15l-9.4-24c-0.1-0.2-4.2-10.6-4.2-10.6L105.4,5.5z"/>
	</defs>
	<use xlink:href="#SVGID_31_"  overflow="visible" fill="#A8A1B9"/>
	<clipPath id="SVGID_32_">
		<use xlink:href="#SVGID_31_"  overflow="visible"/>
	</clipPath>
	
		<rect x="73.9" y="-0.8" transform="matrix(-0.9991 4.205194e-02 -4.205194e-02 -0.9991 210.487 50.4049)" clip-path="url(#SVGID_32_)" fill="#A8A1B9" width="61.7" height="56.4"/>
</g>
<g>
	<defs>
		<path id="SVGID_33_" d="M86.7,52.9c2.3,5.9,9,8.8,15,6.5l8.2-3.2c-1.1,0.1-2.2,0.2-3.3,0.3c-7.2,0.3-14-1.5-20.1-4.3L86.7,52.9z"
			/>
	</defs>
	<use xlink:href="#SVGID_33_"  overflow="visible" fill="#A8A1B9"/>
	<clipPath id="SVGID_34_">
		<use xlink:href="#SVGID_33_"  overflow="visible"/>
	</clipPath>
	<rect x="86.4" y="52.2" clip-path="url(#SVGID_34_)" fill="#A8A1B9" width="23.4" height="9.6"/>
</g>
<path fill="#FFFFFF" d="M104.4,53.9C96.8,53.1,89.9,50,84,46l2.4,6.2c6.1,2.8,13,4.6,20.1,4.3c1.1,0,2.2-0.1,3.3-0.3l8.6-3.4
	C113.9,53.9,109.2,54.4,104.4,53.9"/>
<g>
	<defs>
		<path id="SVGID_35_" d="M60.7,5.1L60.7,5.1l-21.6,8.5c-5.9,2.3-8.8,9-6.5,15l6.7,17.1c5.9,4,12.8,7,20.4,7.8c4.8,0.5,9.5,0,14-1
			l7.2-2.8c5.9-2.3,8.8-9,6.5-15l-9.4-24C78,10.4,73.9,0,73.9,0L60.7,5.1z"/>
	</defs>
	<use xlink:href="#SVGID_35_"  overflow="visible" fill="#605380"/>
	<clipPath id="SVGID_36_">
		<use xlink:href="#SVGID_35_"  overflow="visible"/>
	</clipPath>
	
		<rect x="29.2" y="-1.2" transform="matrix(-0.9991 4.199786e-02 -4.199786e-02 -0.9991 121.202 51.3561)" clip-path="url(#SVGID_36_)" fill="#605380" width="61.7" height="56.4"/>
</g>
<g>
	<defs>
		<path id="SVGID_37_" d="M41.8,52.9c2.3,5.9,9,8.8,15,6.5l8.2-3.2c-1.1,0.1-2.2,0.2-3.3,0.3c-7.2,0.3-14-1.5-20.1-4.3L41.8,52.9z"
			/>
	</defs>
	<use xlink:href="#SVGID_37_"  overflow="visible" fill="#5D5D5D"/>
	<clipPath id="SVGID_38_">
		<use xlink:href="#SVGID_37_"  overflow="visible"/>
	</clipPath>
	<rect x="41.5" y="52.2" clip-path="url(#SVGID_38_)" fill="#605380" width="23.4" height="9.6"/>
</g>
<path fill="#FFFFFF" d="M59.5,53.9C51.9,53.1,45.1,50,39.1,46l2.4,6.2c6.1,2.8,13,4.6,20.1,4.3c1.1,0,2.2-0.1,3.3-0.3l8.6-3.4
	C69,53.9,64.3,54.4,59.5,53.9"/>
<path fill="#FFFFFF" d="M79.1,41.5c0,1.8-1.4,3.2-3.2,3.2c-1.8,0-3.2-1.4-3.2-3.2c0-1.8,1.4-3.2,3.2-3.2
	C77.7,38.3,79.1,39.7,79.1,41.5"/>
<path fill="#FFFFFF" d="M77.1,43.6L77,43l-0.4,0.3c0,0,0,0,0,0c-0.1,0-0.2-0.1-0.3-0.1c0,0-0.1,0-0.1,0c-0.2,0-0.6-0.1-0.8-0.1
	l-1-0.3l0.6,0.9c1.4,0.8,0.6,2.5,0.5,2.8c-0.7,1.3-2.7,1.6-3.9,1.6c-2,0-4.4-1-6.7-2.3c-3.2-1.8-5.2-3.7-5.4-6.1
	c6.1-4.3,7.4-6.3,8.4-12.6c0.6-3.6-0.2-7.3-1.2-10.1c-1.1-2.8-3.2-4.5-5.3-4.8c-0.2,0-0.5-0.1-0.8-0.1c-1.2,0-2.5,0.4-3.6,1
	c-0.1,0-0.2,0-0.3,0c-0.4,0-0.7,0.1-1.1,0.3c-0.7,0.5-1,1.4-0.6,2c0,0.1,0.1,0.2,0.1,0.2c0.1,0.2,0.3,0.3,0.5,0.4
	c0.2,0.1,0.5,0.2,0.8,0.2c0.4,0,0.7-0.1,1.1-0.4c0.3-0.2,0.5-0.4,0.6-0.7c0.8-0.7,1.6-0.9,2.1-0.9c0.1,0,0.3,0,0.4,0
	c1.7,0.3,3.1,1.8,3.8,4.3c0.8,2.5,0.9,5.7,0.4,8.9c-0.8,5.1-3.4,9.3-6.4,10.5c0,0-0.1,0-0.1,0c-3.2,0-7.1-2.6-10-6.5
	C44.1,26,43.2,20,46,17.9c0.3-0.2,0.8-0.5,1.7-0.5c0.3,0,0.6,0,0.9,0.1c0.3,0.2,0.6,0.3,0.9,0.4c0.1,0,0.2,0,0.3,0
	c0.6,0,1.1-0.3,1.4-0.7c0.1-0.2,0.2-0.4,0.2-0.6c0-0.1,0-0.2,0-0.3c0-0.8-0.7-1.4-1.5-1.5c-0.1,0-0.2,0-0.3,0c-0.4,0-0.7,0.1-1,0.3
	c-0.1,0-0.3,0-0.4,0c-1.5,0-3,0.4-3.9,1.1c-3.6,2.6-3.5,10.8,1.2,16.7c3.4,4.2,5.2,5,12.2,6.9c-0.1,2.9,2.9,5.6,6.9,7.9
	c2.3,1.3,4.8,2,7,2c2.4,0,4.2-0.8,5-2.3C77.3,46.4,77.4,44.9,77.1,43.6"/>
<path fill="#FFFFFF" d="M122.7,24.9c-2.2-11-11.1-8.4-14.2-7.6l-0.3,0c1.3-0.6,3.2-1.9,4.3-4.1c1.7-3.7,0.4-7,0.4-7
	s-6.8,2.4-6.4,9.9c-0.2-0.6-0.5-1.4-0.9-2.1c-1.3-2.6-3-3.9-3-3.9l-1.4,0.8c0,0,2.4,1.2,3.5,4c0.4,1.2,0.7,2,0.7,2.5l-0.7,0
	l-1.4-0.1c-3.2-0.8-12.1-3.3-14.2,7.6c-2.2,11,7.5,23.9,11.3,23.9c3.8,0,4-0.8,5.5-1.1c1.5,0.2,1.7,1.1,5.5,1.1
	C115.3,48.8,124.9,35.8,122.7,24.9 M109.6,27.4c0-1.2,0.9-2,2.1-2c1.3,0,2.2,0.9,2.2,2.1c0,1.2-0.9,2-2.2,2
	C110.5,29.5,109.6,28.7,109.6,27.4L109.6,27.4z M97.4,27.4c0-1.2,0.9-2,2.1-2c1.3,0,2.2,0.9,2.2,2.1c0,1.2-0.9,2-2.2,2
	C98.3,29.5,97.4,28.7,97.4,27.4L97.4,27.4z M116.2,34.1c-2.1,2.6-5.4,5.4-10.5,5.4c-5,0-8.3-2.7-10.5-5.4v-2.8
	c2.5,2.9,5.9,5.2,10.5,5.2c4.6,0,7.9-2.2,10.4-5.2V34.1z"/>
<g>
	<path fill="#605380" d="M208.5,83.4c0-0.4,0-0.9,0-1.3h0c-0.1,0.3-0.2,0.7-0.4,1.1l-0.5,1.4h-0.3l-0.5-1.4
		c-0.1-0.4-0.3-0.8-0.3-1.1h0c0,0.4,0,0.9-0.1,1.3l-0.1,1.3h-0.4l0.2-2.9h0.5l0.5,1.4c0.1,0.4,0.2,0.7,0.3,1h0
		c0.1-0.3,0.2-0.6,0.3-1l0.5-1.4h0.5l0.2,2.9h-0.4L208.5,83.4z"/>
	<path fill="#605380" d="M211.6,84.6c-0.1,0.1-0.4,0.1-0.8,0.1c-0.8,0-1.5-0.5-1.5-1.5c0-0.9,0.6-1.5,1.5-1.5c0.4,0,0.6,0.1,0.7,0.1
		l-0.1,0.3c-0.1-0.1-0.3-0.1-0.6-0.1c-0.7,0-1.1,0.4-1.1,1.2c0,0.7,0.4,1.2,1.1,1.2c0.2,0,0.5,0,0.6-0.1L211.6,84.6z"/>
</g>
</svg>
