<?xml version="1.0" encoding="UTF-8"?>
<svg width="512px" height="512px" viewBox="0 0 512 512" version="1.1" xmlns="http://www.w3.org/2000/svg" xmlns:xlink="http://www.w3.org/1999/xlink">
    <!-- Generator: Sketch 42 (36781) - http://www.bohemiancoding.com/sketch -->
    <title>storydoc-api-icon</title>
    <desc>Created with Sketch.</desc>
    <defs></defs>
    <g id="Page-1" stroke="none" stroke-width="1" fill="none" fill-rule="evenodd">
        <g id="storydoc-api-icon">
            <g id="Page-1" transform="translate(34.000000, 3.000000)" fill="#FFB1DF">
                <path d="M443.406,371.0605 C443.406,376.5605 439.509,383.3105 434.746,386.0605 L230.363,504.0625 C225.6,506.8125 217.806,506.8125 213.043,504.0625 L8.66,386.0605 C3.897,383.3105 0,376.5605 0,371.0605 L0,135.0615 C0,129.5615 3.897,122.8115 8.66,120.0615 L213.043,2.0625 C217.806,-0.6875 225.6,-0.6875 230.363,2.0625 L434.746,120.0615 C439.509,122.8115 443.406,129.5615 443.406,135.0615 L443.406,371.0605 Z" id="Fill-1"></path>
            </g>
            <g id="Page-1" transform="translate(108.000000, 119.000000)">
                <path d="M173.4976,125.4811 C173.4976,114.5611 178.6816,105.8781 187.1926,102.1301 C195.7086,98.3841 205.3066,100.3991 212.7226,107.1591 C215.1016,109.3231 217.1796,110.3641 219.3516,109.3511 C221.5796,108.3111 221.9446,104.4971 221.9446,102.1261 L221.9446,61.4351 C221.9446,55.9961 217.9056,52.1101 212.4646,52.1101 L172.5616,52.1101 C159.2536,52.1101 156.2886,40.8991 163.0976,33.1861 C174.3066,20.4871 168.3006,0.8521 147.9046,0.0001 C127.5116,0.8491 121.5066,20.4521 132.7156,33.1521 C139.5226,40.8681 136.5596,52.1101 123.2536,52.1101 L83.9396,52.1101 C78.5016,52.1101 74.0546,55.9961 74.0546,61.4351 L74.0546,101.8601 C74.0546,104.2311 75.1176,108.2211 77.3896,109.2801 C79.6486,110.3311 82.5706,109.2341 84.9726,107.0441 C92.3616,100.3071 102.2856,98.4311 110.7106,102.1371 C119.1786,105.8711 125.0506,114.6391 125.0506,125.5901 L125.0506,125.7851 L125.0506,125.9131 C125.0506,136.8311 119.1086,145.5151 110.5986,149.2641 C102.0816,153.0111 92.1116,150.9971 84.6966,144.2381 C82.3206,142.0681 79.5336,141.0331 77.3606,142.0431 C75.1306,143.0851 74.0546,146.9001 74.0546,149.2721 L74.0546,189.9591 C74.0546,195.3971 78.5016,200.0001 83.9396,200.0001 L124.3646,200.0001 C126.7386,200.0001 130.7286,198.8601 131.7846,196.5881 C132.8356,194.3321 131.7416,191.3721 129.5516,188.9661 C122.8136,181.5811 120.9376,171.7101 124.6446,163.2881 C128.3786,154.8171 137.1436,149.0031 148.0956,149.0031 L148.2926,149.0031 L148.4176,149.0031 C159.3376,149.0031 168.0206,154.8661 171.7686,163.3821 C175.5176,171.8931 173.5016,181.8311 166.7436,189.2421 C164.5716,191.6221 163.5386,194.4661 164.5506,196.6371 C165.5876,198.8681 169.4056,200.0001 171.7766,200.0001 L212.4646,200.0001 C217.9056,200.0001 221.9446,195.3971 221.9446,189.9591 L221.9446,149.5341 C221.9446,147.1631 221.4016,143.1721 219.1286,142.1141 C216.8726,141.0631 214.2106,142.1601 211.8066,144.3531 C204.4216,151.0891 195.3766,152.9631 186.9526,149.2561 C178.4856,145.5261 173.4976,136.7561 173.4976,125.8031 L173.4976,125.6091 L173.4976,125.4811 Z" id="Fill-1" fill="#8C3E6C"></path>
                <path d="M120.1401,125.9606 C119.2901,146.3606 99.6601,152.3606 86.9601,141.1496 C79.2501,134.3396 68.0301,137.3106 68.0301,150.6206 L68.0301,190.5196 C68.0301,195.9606 64.1501,199.9996 58.7101,199.9996 L9.0001,199.9996 C4.0301,199.9996 0.0001,195.9706 0.0001,190.9996 L0.0001,61.1096 C0.0001,56.1406 4.0301,52.1096 9.0001,52.1096 L58.7101,52.1096 C64.1501,52.1096 68.0301,56.5606 68.0301,62.0006 L68.0301,101.3106 C68.0301,114.6206 79.2801,117.5806 86.9901,110.7706 C99.6901,99.5606 119.2901,105.5696 120.1401,125.9606" id="Fill-3" fill="#8C3E6C"></path>
                <path d="M120.1401,125.9606 C119.2901,146.3606 99.6601,152.3606 86.9601,141.1496 C79.2501,134.3396 68.0301,137.3106 68.0301,150.6206 L68.0301,190.5196 C68.0301,195.9606 64.1501,199.9996 58.7101,199.9996 L9.0001,199.9996 C4.0301,199.9996 0.0001,195.9706 0.0001,190.9996 L0.0001,61.1096 C0.0001,56.1406 4.0301,52.1096 9.0001,52.1096 L58.7101,52.1096 C64.1501,52.1096 68.0301,56.5606 68.0301,62.0006 L68.0301,101.3106 C68.0301,114.6206 79.2801,117.5806 86.9901,110.7706 C99.6901,99.5606 119.2901,105.5696 120.1401,125.9606 Z" id="Stroke-5"></path>
                <path d="M176.8491,126.1501 C177.6991,105.7501 197.3291,99.7501 210.0291,110.9601 C217.7401,117.7701 228.9601,114.8001 228.9601,101.4901 L228.9601,61.5901 C228.9601,56.1501 232.8391,52.1101 238.2791,52.1101 L287.9901,52.1101 C292.9601,52.1101 296.9901,56.1401 296.9901,61.1101 L296.9901,191.0001 C296.9901,195.9691 292.9601,200.0001 287.9901,200.0001 L238.2791,200.0001 C232.8391,200.0001 228.9601,195.5491 228.9601,190.1101 L228.9601,150.7991 C228.9601,137.4901 217.7101,134.5301 209.9991,141.3401 C197.3001,152.5491 177.6991,146.5401 176.8491,126.1501" id="Fill-10" fill="#8C3E6C"></path>
                <path d="M147.9033,153.0544 C168.3043,153.9054 174.3043,173.5344 163.0933,186.2354 C156.2823,193.9454 159.2533,205.1654 172.5643,205.1654 L212.4623,205.1654 C217.9033,205.1654 221.9433,209.0444 221.9433,214.4854 L221.9433,264.1954 C221.9433,269.1654 217.9133,273.1954 212.9433,273.1954 L83.0533,273.1954 C78.0843,273.1954 74.0533,269.1654 74.0533,264.1954 L74.0533,214.4854 C74.0533,209.0444 78.5043,205.1654 83.9433,205.1654 L123.2543,205.1654 C136.5633,205.1654 139.5233,193.9154 132.7133,186.2044 C121.5043,173.5054 127.5133,153.9054 147.9033,153.0544" id="Fill-7" fill="#8C3E6C"></path>
            </g>
        </g>
    </g>
</svg>