<?xml version="1.0" encoding="UTF-8"?>
<svg width="512px" height="512px" viewBox="0 0 512 512" version="1.1" xmlns="http://www.w3.org/2000/svg" xmlns:xlink="http://www.w3.org/1999/xlink">
    <!-- Generator: Sketch 42 (36781) - http://www.bohemiancoding.com/sketch -->
    <title>storydoc-chatbot-icon</title>
    <desc>Created with Sketch.</desc>
    <defs></defs>
    <g id="Page-1" stroke="none" stroke-width="1" fill="none" fill-rule="evenodd">
        <g id="storydoc-chatbot-icon">
            <g>
                <rect id="Combined-Shape" fill="#AEF0ED" x="0" y="0" width="512" height="512" rx="53.9896738"></rect>
                <path d="M361.398419,147.056765 C361.113097,147 360.770712,147 360.428326,147 C346.789962,147 333.893434,150.235602 322.480578,155.968862 C313.236164,160.566823 304.961843,166.810967 298.057064,174.360705 C300.624957,179.242491 302.850464,184.294572 304.733585,189.516947 C309.469921,202.572885 312.037814,216.650592 312.037814,231.295949 C312.037814,245.373657 309.641114,258.883715 305.247164,271.485533 C303.249914,277.275558 300.79615,282.838523 298,288.174428 C311.524235,302.819785 330.127191,312.696886 351.012719,315.024249 L351.012719,343.633783 C351.012719,345.790851 351.754555,347.72086 352.952905,349.310278 C354.664833,351.580876 357.403919,353 360.428326,353 C360.770712,353 361.113097,353 361.398419,352.943235 C418.063252,352.489115 464,306.452742 464,250.028382 C464,193.547258 418.063252,147.510885 361.398419,147.056765 Z M340.341698,249.971618 C329.955999,249.971618 321.510485,241.570405 321.510485,231.239184 C321.510485,220.907964 329.955999,212.506751 340.341698,212.506751 C350.727398,212.506751 359.172912,220.907964 359.172912,231.239184 C359.172912,241.570405 350.727398,249.971618 340.341698,249.971618 Z M396.835339,249.971618 C386.449639,249.971618 378.004125,241.570405 378.004125,231.239184 C378.004125,220.907964 386.449639,212.506751 396.835339,212.506751 C407.221038,212.506751 415.666552,220.907964 415.666552,231.239184 C415.609488,241.570405 407.221038,249.971618 396.835339,249.971618 Z" id="Shape" fill="#82C8C4" fill-rule="nonzero"></path>
                <path d="M297.226245,191.715441 C294.835859,185.094584 291.819419,178.756669 288.290753,172.758286 C277.021788,153.687955 260.402911,138.126112 240.483024,128.109943 C224.888598,120.357316 207.359097,116 188.805145,116 C188.349833,116 187.894522,116 187.553038,116.056589 C110.491532,116.679062 48,179.265966 48,256 C48,332.734034 110.491532,395.320938 187.553038,395.943411 C187.951436,396 188.406747,396 188.805145,396 C192.959864,396 196.659272,394.019402 198.992744,390.963622 C200.643249,388.813258 201.610787,386.153597 201.610787,383.267583 L201.610787,344.391269 C239.060175,340.260307 271.216564,318.134196 289.030634,286.953921 C292.502386,280.898949 295.404998,274.561035 297.681557,267.940178 C301.779362,256.226354 303.999007,243.663703 303.999007,230.591754 C304.055921,216.953921 301.665534,203.881973 297.226245,191.715441 Z M137.639492,256 C123.524829,256 112.028209,244.625707 112.028209,230.535166 C112.028209,216.501213 123.467915,205.070331 137.639492,205.070331 C151.811069,205.070331 163.250776,216.444624 163.250776,230.535166 C163.193862,244.625707 151.754155,256 137.639492,256 Z M214.416429,256 C200.244852,256 188.805145,244.625707 188.805145,230.535166 C188.805145,216.501213 200.244852,205.070331 214.416429,205.070331 C228.531091,205.070331 240.027712,216.444624 240.027712,230.535166 C240.027712,244.625707 228.588005,256 214.416429,256 Z" id="Shape" fill="#3B7D7A" fill-rule="nonzero"></path>
            </g>
        </g>
    </g>
</svg>