<?xml version="1.0" encoding="UTF-8"?>
<svg width="464px" height="512px" viewBox="0 0 464 512" version="1.1" xmlns="http://www.w3.org/2000/svg" xmlns:xlink="http://www.w3.org/1999/xlink">
    <!-- Generator: Sketch 42 (36781) - http://www.bohemiancoding.com/sketch -->
    <title>storydoc-documentation-icon</title>
    <desc>Created with Sketch.</desc>
    <defs></defs>
    <g id="Page-1" stroke="none" stroke-width="1" fill="none" fill-rule="evenodd">
        <g id="storydoc-documentation-icon">
            <g id="Group-2">
                <path d="M42.1097156,180.612848 C40.3656177,176.263688 42.7550081,172.872917 47.4227838,173.038505 L356.56219,184.005133 C361.240614,184.171099 365.819974,188.015498 366.792939,192.603457 L414.171354,416.013448 L131.081293,402.476314 L42.1097156,180.612848 Z" id="Rectangle-4" fill="#FFFFFF" transform="translate(227.854353, 294.523051) rotate(-44.100000) translate(-227.854353, -294.523051) "></path>
                <path d="M42.3529412,345.248922 L237.183824,411.152146 L237.183824,473.702249 L3.95751208,391.015342 C-0.455992522,389.4506 -1.25385475,385.609111 2.18597066,382.425387 L42.3529412,345.248922 Z" id="Rectangle" fill="#8C3E6C"></path>
                <path d="M8.34558824,338.811377 C8.34558824,334.129041 11.9285829,331.582398 16.3558826,333.12589 L237.183824,410.113262 L237.183824,469.462815 L16.3391815,391.153032 C11.9244418,389.5876 8.34558824,384.513988 8.34558824,379.840446 L8.34558824,338.811377 Z" id="Rectangle" fill="#FFB1DF"></path>
                <path d="M13.6470588,333.472716 L287.058824,86.172388" id="Line" stroke="#FFB1DF" stroke-width="3.76838595" stroke-linecap="square"></path>
                <path d="M75.4729125,86.6954913 C75.0187313,82.0320987 78.4451494,78.3775543 83.128853,78.5329315 L383.146968,88.4857299 C387.829409,88.6410651 391.916934,92.5571824 392.275289,97.2141255 L412.118027,355.077683 L101.216666,351.024408 L75.4729125,86.6954913 Z" id="Rectangle-4" fill="#8C3E6C" transform="translate(243.775193, 216.802530) rotate(-44.100000) translate(-243.775193, -216.802530) "></path>
                <path d="M234.352941,418.007915 C234.352941,413.323906 237.11272,406.919265 240.518193,403.701696 L457.025924,199.140262 C460.430899,195.923165 463.191176,197.120293 463.191176,201.788951 L463.191176,259.502579 C463.191176,264.182507 460.400838,270.535483 456.936716,273.712583 L240.607402,472.117846 C237.153159,475.285887 234.352941,474.058684 234.352941,469.372943 L234.352941,418.007915 Z" id="Rectangle-3" fill="#8C3E6C"></path>
                <g id="Sdoc-2-" transform="translate(417.280621, 278.569546) rotate(47.000000) translate(-417.280621, -278.569546) translate(401.751209, 249.835603)" fill="#FFB1DF">
                    <path d="M0.771600188,1.1139065 C0.729841619,0.202343301 1.23283331,-0.0375183986 1.89816329,0.581042222 L29.6853168,26.4148984 C30.349259,27.0321688 30.8874905,28.2662379 30.8874905,29.1812472 L30.8874905,39.8969353 C30.8874905,40.8074771 30.3498977,41.0458144 29.6751953,40.4185403 L2.57877647,15.2268636 C1.90924436,14.6043962 1.33230976,13.3538427 1.29087076,12.4492555 L0.771600188,1.1139065 Z M17.2933031,33.5461973 C17.2990828,32.718587 17.7921488,32.5035439 18.4035181,33.0742123 L29.9262288,43.8298174 C30.533604,44.3967576 31.0259788,45.5342111 31.0259788,46.3521604 L31.0259788,55.9684884 C31.0259788,56.7945998 30.5344847,57.0055218 29.9308127,56.4420383 L18.3114566,45.5962217 C17.706613,45.0316447 17.2209936,43.9004969 17.2267554,43.0754435 L17.2933031,33.5461973 Z M1.46049547,18.7611153 C1.46622728,17.9338614 1.95925457,17.7227134 2.55910259,18.2870567 L14.1048558,29.1494229 C14.705868,29.7148615 15.1930846,30.838568 15.1930846,31.6808797 L15.1930846,41.3732779 C15.1930846,42.2059243 14.7015905,42.4185147 14.1094615,41.8614335 L2.4670193,30.9081013 C1.86855079,30.3450559 1.38809939,29.2098222 1.39377456,28.3907417 L1.46049547,18.7611153 Z" id="Combined-Shape"></path>
                </g>
                <path d="M410.646017,275.025519 C410.591429,275.22336 410.577311,275.429679 410.596135,275.604909 C410.613076,275.782965 410.664841,275.928048 410.745782,276.000589 L411.628606,276.775935 C411.933547,277.042548 412.342017,276.667593 412.541547,275.940295 C412.741076,275.211112 412.654488,274.40562 412.350488,274.140891 L412.273311,274.070233 L412.323194,273.88464 C412.521782,273.1564 412.436135,272.350907 412.134017,272.085236 C411.830959,271.821449 411.425311,272.196404 411.226723,272.925586 L410.646017,275.025519 Z" id="Page-1" fill="#8C3E6C"></path>
            </g>
        </g>
    </g>
</svg>